<svg width="146" height="32" fill="none" xmlns="http://www.w3.org/2000/svg"><g clip-path="url(#clip0_986_632)"><path d="M39.752 25.267h1.107l2.172 3.75h.016v-3.75h.97v5.157h-1.084l-2.195-3.75h-.014v3.75h-.972v-5.157zm7.318 0h2.826v.892h-1.853v1.26h1.775v.894h-1.775v1.218h1.853v.893H47.07v-5.157zm5.439 0h.995l.908 3.603h.015l.902-3.603h.709l.882 3.603h.012l.916-3.603h.996l-1.528 5.157h-.774l-.852-3.41h-.016l-.865 3.41h-.766l-1.534-5.157zm13.959 0l-.007 3.275c0 .259 0 1.096.91 1.096.908 0 .908-.836.908-1.096v-3.275h.972v3.275c0 .418-.057.879-.305 1.22a1.923 1.923 0 01-1.57.766 1.968 1.968 0 01-1.562-.738c-.169-.222-.327-.613-.327-1.247v-3.275l.98-.001zm5.759 0h1.61c.605 0 .98.112 1.28.348.298.236.618.657.618 1.248 0 .342-.13.877-.506 1.233-.311.293-.61.363-.873.426l1.428 1.902h-1.18l-1.39-1.973h-.015v1.973h-.972v-5.157zm.972 2.465h.624c.803 0 .937-.521.937-.792 0-.287-.178-.781-.937-.781H73.2v1.573zm5.318-2.465h1.037c.581 0 1.165 0 1.62.397.26.23.445.607.445.96 0 .65-.423.893-.587.985.346.123.9.41.9 1.282 0 .62-.333 1.003-.652 1.226-.398.27-1.015.307-1.357.307h-1.406v-5.157zm.974 2.007h.319c.228 0 .838 0 .838-.557 0-.308-.2-.558-.752-.558h-.404v1.115zm0 2.257h.49c.19 0 .98 0 .98-.676 0-.208-.107-.69-.96-.69h-.51v1.366zm7.015-4.264h.758l2.2 5.157h-1.072l-.56-1.333H85.95l-.56 1.333h-1.072l2.189-5.157zm-.228 2.926h1.205l-.595-1.581h-.014l-.596 1.58zm5.872-2.926h1.106l2.174 3.75h.015v-3.75h.972v5.157H95.33l-2.195-3.75h-.013v3.75h-.973v-5.157zm11.515 0h1.32c.56 0 1.045 0 1.542.412.34.305.497.703.497 1.184 0 .48-.157.877-.497 1.185-.498.41-.982.41-1.542.41h-.347v1.966h-.974l.001-5.157zm.973 2.3h.312c.419 0 1.101-.03 1.101-.704 0-.676-.669-.704-1.066-.704h-.347v1.408zm5.077-2.3h1.612c.601 0 .979.112 1.276.348.3.236.616.657.616 1.248 0 .342-.125.877-.502 1.233-.312.293-.611.363-.874.426l1.429 1.902h-1.18l-1.39-1.973h-.015v1.973h-.972v-5.157zm.972 2.465h.624c.803 0 .937-.521.937-.792 0-.287-.177-.781-.937-.781h-.624v1.573zm7.803-2.572c1.49 0 2.746 1.173 2.746 2.7 0 1.478-1.235 2.668-2.746 2.668-1.512 0-2.748-1.19-2.748-2.667 0-1.528 1.257-2.7 2.748-2.7zm0 4.477c1 0 1.774-.831 1.774-1.784 0-.99-.787-1.8-1.774-1.8-.989 0-1.775.81-1.775 1.8-.001.953.774 1.784 1.775 1.784zm8.017-4.37v3.692c0 1.38-1.045 1.568-1.436 1.568-.525 0-.887-.243-1.072-.445-.24-.272-.341-.614-.383-.871h.981c.065.277.219.426.462.426.418 0 .474-.406.474-.614v-3.756h.974zm3.066 0h2.825v.892h-1.853v1.26h1.775v.894h-1.775v1.218h1.853v.893h-2.825v-5.157zm10.801 3.721c-.415.949-1.421 1.539-2.429 1.539-1.52 0-2.742-1.246-2.742-2.702 0-1.423 1.2-2.665 2.719-2.665.874 0 1.974.448 2.479 1.576h-1.108c-.377-.425-.823-.683-1.406-.683-.853 0-1.712.753-1.712 1.784 0 .968.817 1.799 1.747 1.799.704 0 1.087-.406 1.321-.65h1.131v.002zm3.272-2.829h-.974v-.892h2.926v.892h-.98v4.265h-.972v-4.265zM47.48 16.707a13.228 13.228 0 01-2.376-2.454h-.04v6.359h-1.125v-6.195h-.042c-.624.878-2.165 2.617-4.334 4.15l-.543-.981c2.626-1.82 4.146-3.62 4.897-4.906h-4.355v-1.024h4.376V9.202h-4.687v-1H42c-.064-.778-.333-2.64-.583-3.478h-1.855V3.722h4.376V1.759h1.124v1.964h3.833v1.002h-1.354c-.167 1.145-.395 2.639-.604 3.478h2.209v1h-4.085v2.454h3.833v1.024h-3.833v.04c.52.778 1.626 1.964 3.146 3.068l-.728.918zm-1.606-8.505c.314-1.33.418-2.025.604-3.478H42.48c.23.96.437 2.394.541 3.478h2.854zm5.314 0h7.063v1.042h-2.522v11.368h-1.166V9.244h-3.374V10.9c0 .245 0 2.659-.77 5.398-.689 2.434-1.792 3.702-2.231 4.172l-.957-.756c.52-.593 1.626-1.882 2.124-3.925.397-1.638.687-3.314.687-5.01V3.11a23.84 23.84 0 007.251-1.123l.522 1.123c-2.834.757-5.48.96-6.625 1.043v4.05h-.002zM72.36 3.109c-1.418 2.842-2.458 4.17-3.272 5.133h2.896v.98h-3.792a15.422 15.422 0 01-2.417 2.045v.04h5.021v8.18h-6.642v1.165h-1.107v-7.646c-.81.407-1.188.57-1.665.776l-.605-.84c1.291-.53 3.561-1.532 5.938-3.72H61.09v-.98h4.332V5.094h-3.624v-.962h3.624V1.86h1.126v2.27h3.125v.963h-3.125v3.148h1.146c1.269-1.35 2.437-3.007 3.624-5.603l1.041.47zm-8.207 9.262v2.372h5.56V12.29H64.3l-.146.08zm5.56 3.292h-5.56v2.803h5.56v-2.803zM79.774 3.457c-.77 2.454-1.56 3.946-2.832 6.156 2.48 2.003 3.147 3.7 3.147 5.336 0 2.27-1.335 3.333-3.147 3.333h-1.687l-.167-1.207 1.77.043c.626.019.982.039 1.377-.41.563-.593.604-1.535.604-1.88 0-1.372-.501-2.66-3.313-5.031 1.166-1.8 2.272-3.968 2.979-6.34h-4.479v17.197h-1.103v-18.2h6.852v1.003zm13.342-1.84V4.09h8.895v1.103h-8.895v2.903h7.081v9.243c0 .96-.81 1.513-1.561 1.513h-2.813l-.313-1.145 2.689.04c.397.022.791.022.791-.797V9.223h-5.873V20.57h-1.19V9.223h-5.875v9.898h-1.165V8.098h7.04V5.194h-8.895V4.09h8.896V1.617h1.188zm11.294 6.666c3.064-1.147 7.044-3.682 9.146-6.81h1.272c2.395 3.109 6.167 5.564 9.332 6.81l-.542 1.186c-3.497-1.33-7.123-4.252-9.353-6.952-2.062 2.515-5.605 5.418-9.334 6.808l-.521-1.042zm17.626 4.293h-6.915v6.054h8.499v1.064h-18.707V18.63h3.166V9.877h1.209v8.753h4.626V6.873h1.208v4.64h6.915l-.001 1.063zM146 2.495v1.044h-9.146v2.33h4.877v10.246h-10.895V5.869h4.852v-2.33h-9.124V2.495H146zm-17.458 3.374v12.493h15.46V5.869h1.186v14.62h-1.186v-1.125h-15.46v1.125h-1.146V5.869h1.146zm7.145.962h-3.75v3.538h3.75V6.83zm0 4.478h-3.75v3.803h3.75v-3.803zm4.896-4.478h-3.73v3.538h3.73V6.83zm0 4.478h-3.73v3.803h3.73v-3.803z" fill="#2C2826"/><path d="M0 7.793l2.207-3.946H0v3.946zm1.357.076h7.01l1.612-4.022H3.606L1.357 7.869zm2.92-5.224h6.186L11.523 0H5.756L4.277 2.645zm1.002 12.919H0v7.067h2.44l2.839-7.067zM0 23.837v4.875l1.957-4.875H0zM18.68 0h-5.837l-1.061 2.645h6.255L18.68 0zM7.882 9.075h-7.2L0 10.298v4.062h5.76l2.122-5.285zm7.003 6.489h-8.29L3.76 22.631h9.403l1.723-7.067zM25.82 0h-5.88l-.645 2.645h6.298L25.82 0zm-9.353 9.075H9.2L7.08 14.36h8.1l1.287-5.285zm1.276-5.228h-6.444L9.684 7.869h7.078l.98-4.022zM23.061 32l.702-8.163h-9.634L12.137 32h10.924zm3.764-29.355h5.78V0h-5.552l-.229 2.645zM12.869 23.837H3.277L0 31.999 10.877 32l1.992-8.163zM26.72 3.847l-.346 4.022h6.23V3.847h-5.883zm-1.724 19.99L24.29 32h8.314v-8.163h-7.608zM2.88 2.645L4.355 0H0v2.645h2.88zm22.158 6.43H17.73l-1.29 5.285h8.142l.456-5.285zm-8.893 6.489l-1.725 7.067h9.448l.61-7.067h-8.333zM25.49 3.847h-6.485l-.983 4.022h7.12l.348-4.022zm7.114 11.717H25.71l-.61 7.067h7.505v-7.067zm-6.79-1.204h6.79V9.075H26.27l-.455 5.285z" fill="#9A5C8B"/></g><defs><clipPath id="clip0_986_632"><path fill="#fff" d="M0 0h146v32H0z"/></clipPath></defs></svg>