<svg width="145" height="32" fill="none" xmlns="http://www.w3.org/2000/svg"><g fill="#fff" clip-path="url(#clip0_1111_2282)"><path d="M39.48 25.267h1.1l2.157 3.75h.016v-3.75h.964v5.157h-1.078l-2.18-3.75h-.013v3.75h-.966v-5.157zm7.268 0h2.807v.892h-1.84v1.261h1.762v.893h-1.762v1.218h1.84v.893H46.75v-5.157zm5.402 0h.988l.902 3.603h.015l.895-3.603h.705l.876 3.603h.012l.91-3.603h.988l-1.516 5.157h-.77l-.845-3.41h-.017l-.859 3.41h-.76l-1.524-5.157zm13.863 0l-.006 3.275c0 .26 0 1.096.902 1.096.903 0 .903-.836.903-1.096v-3.275h.965v3.275c0 .418-.056.88-.302 1.22a1.905 1.905 0 01-1.56.766 1.95 1.95 0 01-1.55-.738c-.169-.222-.325-.613-.325-1.247v-3.275h.973zm5.72 0h1.6c.6 0 .973.112 1.27.348.296.236.614.657.614 1.248 0 .342-.13.877-.502 1.233-.31.293-.606.363-.867.426l1.417 1.902h-1.17l-1.383-1.973h-.014v1.973h-.965v-5.157zm.965 2.465h.62c.798 0 .93-.52.93-.792 0-.287-.176-.78-.93-.78h-.62v1.572zm5.282-2.465h1.03c.577 0 1.157 0 1.608.397.259.231.443.607.443.961 0 .65-.42.892-.584.984.344.123.894.411.894 1.282 0 .621-.33 1.003-.647 1.226-.395.271-1.008.307-1.348.307H77.98v-5.157zm.967 2.007h.317c.227 0 .833 0 .833-.557 0-.308-.2-.558-.748-.558h-.4l-.002 1.115zm0 2.257h.487c.19 0 .972 0 .972-.676 0-.208-.105-.69-.953-.69h-.506v1.366zm6.967-4.264h.753l2.185 5.157h-1.064l-.557-1.333h-1.87l-.556 1.333H83.74l2.174-5.157zm-.227 2.926h1.197l-.59-1.58h-.014l-.593 1.58zm5.833-2.926h1.098l2.159 3.75h.015v-3.75h.965v5.157h-1.079l-2.18-3.75h-.012v3.75h-.967v-5.157zm11.435 0h1.312c.556 0 1.038 0 1.531.412.337.305.493.703.493 1.184 0 .48-.156.877-.493 1.185-.494.41-.975.41-1.531.41h-.345v1.966h-.968l.001-5.157zm.967 2.3h.31c.416 0 1.093-.03 1.093-.704 0-.676-.664-.704-1.058-.704h-.345v1.408zm5.043-2.3h1.6c.597 0 .973.112 1.267.348.299.236.612.657.612 1.248 0 .342-.124.877-.499 1.233-.309.293-.607.363-.868.426l1.42 1.902h-1.172l-1.381-1.973h-.014v1.973h-.965v-5.157zm.965 2.465h.619c.797 0 .931-.52.931-.792 0-.287-.176-.78-.931-.78h-.619v1.572zm7.749-2.571c1.48 0 2.728 1.172 2.728 2.7 0 1.477-1.227 2.667-2.728 2.667-1.502 0-2.729-1.189-2.729-2.667 0-1.528 1.248-2.7 2.729-2.7zm0 4.476c.993 0 1.762-.83 1.762-1.784 0-.99-.782-1.799-1.762-1.799-.982 0-1.763.81-1.763 1.8-.001.952.769 1.783 1.763 1.783zm7.962-4.37v3.692c0 1.381-1.037 1.568-1.426 1.568a1.43 1.43 0 01-1.064-.445c-.239-.272-.339-.614-.381-.87h.975c.063.276.217.425.458.425.415 0 .47-.406.47-.614v-3.756h.968zm3.045 0h2.806v.892h-1.84v1.261h1.762v.893h-1.762v1.218h1.84v.893h-2.806v-5.157zm10.727 3.721c-.412.95-1.412 1.54-2.412 1.54-1.51 0-2.723-1.247-2.723-2.703 0-1.423 1.192-2.665 2.7-2.665.868 0 1.96.448 2.462 1.576h-1.101c-.374-.425-.817-.683-1.396-.683-.847 0-1.7.753-1.7 1.784 0 .968.812 1.8 1.735 1.8.7 0 1.079-.407 1.312-.65h1.123v.001zm3.25-2.828h-.967v-.893h2.906v.892h-.974v4.265h-.965V26.16zm-95.508-9.453a13.188 13.188 0 01-2.36-2.454h-.04v6.36H43.64v-6.196h-.042c-.62.878-2.15 2.617-4.304 4.15l-.54-.98c2.608-1.82 4.118-3.62 4.864-4.907h-4.325v-1.024h4.346V9.202h-4.655v-1h2.732c-.064-.778-.331-2.64-.58-3.478h-1.842V3.722h4.346V1.76h1.116v1.964h3.807v1.002h-1.345c-.166 1.145-.393 2.64-.6 3.478h2.194v1h-4.057v2.454h3.807v1.024h-3.807v.04c.517.778 1.615 1.964 3.125 3.068l-.724.918zm-1.594-8.505c.311-1.33.414-2.025.6-3.478h-3.972c.229.961.433 2.394.537 3.478h2.835zm5.277 0h7.014v1.042h-2.504v11.368H54.19V9.244h-3.35V10.9c0 .245 0 2.66-.767 5.398-.683 2.434-1.778 3.702-2.215 4.172l-.95-.756c.516-.593 1.615-1.882 2.11-3.925.394-1.638.682-3.314.682-5.009V3.11c1.74 0 4.263-.185 7.201-1.124l.518 1.123c-2.814.757-5.442.961-6.579 1.043v4.05h-.002zM71.864 3.11c-1.407 2.841-2.44 4.17-3.249 5.132h2.877v.98h-3.766a15.348 15.348 0 01-2.401 2.045v.041h4.987v8.18h-6.597v1.164h-1.099v-7.646c-.805.407-1.18.571-1.654.776l-.6-.839c1.282-.53 3.536-1.533 5.897-3.72h-5.587v-.98h4.303v-3.15h-3.6v-.962h3.6v-2.27h1.118v2.27h3.103v.962h-3.103v3.148h1.138c1.26-1.35 2.42-3.007 3.6-5.603l1.033.47zm-8.15 9.261v2.372h5.523v-2.452h-5.378l-.145.08zm5.523 3.292h-5.523v2.803h5.523v-2.803zm9.992-12.206c-.766 2.454-1.55 3.946-2.813 6.156 2.463 2.003 3.125 3.701 3.125 5.336 0 2.27-1.325 3.333-3.125 3.333H74.74l-.166-1.207 1.759.043c.621.02.974.04 1.367-.41.56-.593.6-1.535.6-1.88 0-1.372-.498-2.66-3.29-5.03 1.158-1.8 2.256-3.969 2.958-6.34H73.52v17.196h-1.096v-18.2h6.806l-.001 1.003zm13.25-1.84v2.474h8.834v1.103h-8.834v2.903h7.032v9.243c0 .961-.804 1.513-1.55 1.513h-2.794l-.31-1.145 2.67.041c.394.021.786.021.786-.798V9.223H92.48v11.348h-1.181V9.223h-5.835v9.898h-1.158V8.098h6.993V5.194h-8.835V4.091H91.3V1.617h1.18zm11.217 6.666c3.043-1.147 6.995-3.682 9.083-6.809h1.263c2.379 3.108 6.125 5.563 9.269 6.81l-.539 1.185c-3.473-1.33-7.075-4.252-9.289-6.952-2.047 2.515-5.567 5.418-9.27 6.808l-.517-1.042zm17.505 4.293h-6.868v6.054h8.441v1.064h-18.579V18.63h3.145V9.877h1.2v8.753h4.594V6.873h1.2v4.641h6.868l-.001 1.062zM145 2.495V3.54h-9.083v2.33h4.844v10.245H129.94V5.87h4.819V3.54h-9.062V2.495H145zM127.662 5.87v12.493h15.354V5.87h1.178v14.62h-1.178v-1.125h-15.354v1.125h-1.138V5.87h1.138zm7.096.962h-3.724v3.538h3.724V6.831zm0 4.478h-3.724v3.803h3.724V11.31zm4.862-4.478h-3.704v3.538h3.704V6.831zm0 4.478h-3.704v3.803h3.704V11.31zM0 7.793l2.192-3.946H0v3.946zm1.348.076h6.961l1.602-4.022h-6.33L1.348 7.869zm2.9-5.224h6.144L11.445 0h-5.73L4.249 2.645zm.994 12.919H0v7.067h2.423l2.82-7.067zM0 23.837v4.875l1.944-4.875H0zM18.552 0h-5.797l-1.054 2.645h6.213L18.552 0zM7.828 9.075H.678L0 10.298v4.062h5.721l2.107-5.285zm6.955 6.489H6.551l-2.817 7.067h9.338l1.711-7.067zM25.643 0h-5.84l-.64 2.645h6.255L25.643 0zm-9.289 9.075H9.137L7.03 14.36h8.044l1.28-5.285zm1.267-5.228h-6.4L9.618 7.869h7.029l.974-4.022zM22.903 32l.697-8.163h-9.568L12.054 32h10.849zM26.64 2.645h5.741V0h-5.514l-.226 2.645zM12.78 23.837H3.255L0 31.999 10.802 32l1.979-8.163zm13.758-19.99l-.344 4.022h6.187V3.847h-5.843zm-1.713 19.99L24.123 32h8.258v-8.163h-7.556zM2.86 2.645L4.326 0H0v2.645h2.86zm22.007 6.43h-7.259l-1.28 5.285h8.086l.453-5.285zm-8.832 6.489l-1.713 7.067h9.382l.607-7.067h-8.276zm9.28-11.717h-6.44l-.977 4.022h7.071l.346-4.022zm7.066 11.717h-6.848l-.605 7.067h7.453v-7.067zm-6.744-1.204h6.744V9.075h-6.292l-.452 5.285z"/></g><defs><clipPath id="clip0_1111_2282"><path fill="#fff" d="M0 0h145v32H0z"/></clipPath></defs></svg>