<svg data-name="レイヤー_2" xmlns="http://www.w3.org/2000/svg" viewBox="0 0 456.72 134.61"><path d="M414.82 104.1l10.07-10.95c14.45 8.91 25.7 19.56 31.83 25.55l-12.26 12.41c-9.34-11.97-19.42-20.15-29.64-27.01zM340.05 0l14.75 3.21c.88.15 3.07.58 3.07 2.48 0 .44-.15 2.04-3.8 2.19-1.17 2.63-2.34 5.11-5.4 11.39 4.38-.58 22.19-2.63 36.35-7.74l.44 14.89c-18.25 3.65-34.75 5.69-44.09 6.57-4.82 8.18-6.86 11.53-10.07 16.35 7.45-3.94 13.87-3.94 15.48-3.94 2.63 0 16.94 0 22.92 15.04 10.95-4.82 28.32-12.26 32.7-14.45l5.84 15.62c-15.91 4.53-24.38 7.88-35.92 12.41.58 5.4.58 11.1.58 15.62 0 6.86-.15 10.66-.44 14.6-2.48-.15-9.78-.29-15.18 0 1.17-12.56.73-21.32.58-23.51C334.06 93.14 331 99.86 331 105.7c0 4.53 1.02 11.24 27.45 11.24 15.18 0 30.37-2.19 45.11-6.13-1.17 4.96-1.75 8.91-1.75 15.91-17.96 3.8-36.06 3.8-40.3 3.8-33.29 0-45.11-11.1-45.11-23.94 0-19.27 27.59-34.16 39.71-39.71-1.17-4.09-2.92-10.37-13.72-10.37s-23.07 6.86-39.71 33.87l-13.58-8.32c6.86-7.15 23.36-27.59 35.19-47.89-11.83.58-15.48.73-27.01.58v-14.6c4.67.44 10.37 1.02 20.44 1.02 5.84 0 10.66-.15 13.58-.29 4.96-10.07 6.72-14.02 8.76-20.88zm-159.3 29.93h26.86V1.17l15.48.58c1.31 0 3.65.15 3.65 2.04 0 1.75-1.61 2.19-3.21 2.77v23.36h51.68v13.87h-51.68v29.05h39.27v13.87h-39.27v30.81h57.82v13.58H147.61v-13.58h60.01V86.71h-38.11V72.84h38.11V43.79h-33.73c-7.3 13.29-14.16 21.75-16.64 24.82-1.9-1.61-5.55-4.82-13.72-7.88 24.82-30.51 29.78-54.75 30.22-57.23l14.75 4.38c1.46.44 3.07.88 3.07 2.48 0 2.04-2.19 2.19-3.8 2.04-2.92 8.03-3.65 9.78-7.01 17.52zM60.15 1.17l16.21 1.17c1.46.15 3.8.58 3.8 2.19 0 1.02-.88 1.31-3.8 2.63-.44 27.3.58 41.61 4.09 53.87 8.03 28.18 28.91 47.89 55.77 60.15-5.55 4.53-8.03 7.45-11.24 13.43-13.87-7.01-23.36-14.45-34.16-25.84-12.56-13.43-17.67-24.53-21.9-36.5-5.26 14.75-9.78 24.09-21.9 36.94-11.97 12.56-22.05 19.13-34.31 25.26-4.53-6.13-7.01-8.76-12.7-12.85 29.05-12.99 47.16-29.93 54.6-55.63 5.55-19.13 5.55-29.78 5.55-64.82z" data-name="レイヤー_1"/></svg>